<?xml version="1.0" encoding="utf-8"?>
<!-- Generator: Adobe Illustrator 16.0.0, SVG Export Plug-In . SVG Version: 6.00 Build 0)  -->
<!DOCTYPE svg PUBLIC "-//W3C//DTD SVG 1.1//EN" "http://www.w3.org/Graphics/SVG/1.1/DTD/svg11.dtd">
<svg version="1.1" id="Layer_1" xmlns="http://www.w3.org/2000/svg" xmlns:xlink="http://www.w3.org/1999/xlink" x="0px" y="0px"
	 width="100.5px" height="100px" viewBox="240.5 200 100.5 100" enable-background="new 240.5 200 100.5 100" xml:space="preserve">
<g id="BACKGROUND" display="none">
	
		<linearGradient id="SVGID_1_" gradientUnits="userSpaceOnUse" x1="646.9863" y1="753.6611" x2="1315.9133" y2="266.2252" gradientTransform="matrix(1 0 0 1 -495.3203 -340.9199)">
		<stop  offset="0" style="stop-color:#4D70FF"/>
		<stop  offset="0.2729" style="stop-color:#436AFF"/>
		<stop  offset="0.7289" style="stop-color:#2A5AFF"/>
		<stop  offset="1" style="stop-color:#174EFF"/>
	</linearGradient>
	<rect display="inline" fill="url(#SVGID_1_)" width="750" height="500"/>
</g>
<g id="OBJECTS">
	<g>
		<g>
			<g>
				<path fill="#FFFFFF" d="M424.638,390.938c-0.555,0-1.11,0-1.665,0c-1.362,0-2.5,1.137-2.5,2.5c0,1.361,1.138,2.5,2.5,2.5
					c0.555,0,1.11,0,1.665,0c1.363,0,2.5-1.139,2.5-2.5C427.138,392.074,426.001,390.938,424.638,390.938L424.638,390.938z"/>
			</g>
		</g>
		<g>
			<path fill="#007BFF" d="M304.182,204.249c16.128,5.744,14.928,24.672,24.422,39.85c9.495,15.178,9.432,29.491,2.619,39.62
				c-6.813,10.127-25.919,16.457-45.485,6.6c-9.908-4.99-23.729-13.162-25.163-36.492
				C258.977,227.833,285.346,197.541,304.182,204.249z"/>
			<path opacity="0.34" fill="#6A64FF" enable-background="new    " d="M260.551,272.307c9.868,14.357,23.335,18.781,39.872,17.197
				c16.536-1.586,35.653-8.473,35.999-30.143c0.347-21.671-19.701-25.523-30.491-42.905c-6.518-10.499-24.768-13.55-38.003-1.947
				C258.233,223.006,243.845,248.002,260.551,272.307z"/>
		</g>
		<path opacity="0.17" fill="#6A64FF" enable-background="new    " d="M573.483,32.45c4.479,9.694,6.793,20.758,13.493,28.891
			c7.402,8.985,19.548,12.91,30.647,10.897c11.103-2.014,20.988-9.543,27.248-19.454c7.807-12.359,9.994-29.024,3.903-42.42
			c-3.471-7.634-9.292-13.792-15.508-19.129c-24.363-20.911-56.717-31.066-87.911-27.595c-4.982,0.554-10.086,1.5-14.313,4.345
			c-16.271,10.949,0.648,24.364,10.193,31.431C554.21,9.019,566.239,16.764,573.483,32.45z"/>
		<path opacity="0.08" fill="#6A64FF" enable-background="new    " d="M-4.893,328.793c37.853,12.488,84.298-7.453,116.506,16.275
			c14.795,10.898,22.808,28.879,28.064,46.646c4.402,14.883,6.747,32.74-3.301,44.467c-8.144,9.502-21.699,11.627-34.082,12.471
			c-24.896,1.697-49.968,0.699-74.656-2.969c-27.122-4.027-54.313-11.523-77.066-27.037c-22.753-15.512-40.658-39.977-43.597-67.631
			c-2.062-19.404,7.114-59.494,31.287-62.512c13.146-1.643,17.827,10.137,25.126,18.545
			C-28.029,316.938-17.305,324.697-4.893,328.793z"/>
		<path opacity="0.05" fill="#6A64FF" enable-background="new    " d="M143.453,326.813c14.639,11.928,24.318,36.113,21.164,54.73
			c-0.95,5.615-3.504,11.318-8.351,14.305c-5.709,3.52-14.37,2.494-20.905,0.986c-23.625-5.449-19.466-31.852-54.086-35.287
			c-12.329-1.223-36.465-0.938-40.849-12.525c-8.251-21.814,25.24-38.311,44.933-40.734
			C106.754,305.652,127.564,313.865,143.453,326.813z"/>
	</g>
</g>
<g id="DESIGNED_BY_FREEPIK" display="none">
</g>
<path fill="#FFFFFF" d="M313.288,230.265c0,2.872-1.861,5.449-4.794,5.449c-2.938,0-5.229-2.209-9.527-2.209
	c-3.079,0-5.872,1.693-5.872,4.788c0,7.583,23.919,2.724,23.919,21.721c0,10.529-8.451,17.086-18.334,17.086
	c-5.513,0-17.401-1.326-17.401-8.25c0-2.869,1.861-5.227,4.797-5.227c3.365,0,7.377,2.873,12.031,2.873
	c4.727,0,7.305-2.727,7.305-6.334c0-8.688-23.919-3.463-23.919-20.547c0-10.307,8.234-16.715,17.759-16.715
	C303.264,222.9,313.288,224.449,313.288,230.265"/>
</svg>
