<svg xmlns="http://www.w3.org/2000/svg" width="33.82" height="30.994" viewBox="0 0 33.82 30.994">
  <g id="Group_81" data-name="Group 81" transform="translate(-908.34 -1825.879)">
    <g id="Group_80" data-name="Group 80">
      <g id="Group_79" data-name="Group 79">
        <g id="Group_78" data-name="Group 78" transform="translate(0 0.373)">
          <g id="Group_77" data-name="Group 77" transform="translate(906 1815)">
            <g id="Group_76" data-name="Group 76">
              <path id="Path_8" data-name="Path 8" d="M17.2,2.333,15.75,0l-.807,6.81a3.21,3.21,0,0,1-.688,1.658L4.322,20.447a4.207,4.207,0,0,1-3.247,1.62A3.885,3.885,0,0,1,0,21.915a2.9,2.9,0,0,0,2.5,1.659H14.392c1.639,0,2.972-1.608,2.972-3.584V2.919A1.116,1.116,0,0,0,17.2,2.333Z" transform="translate(18.82 17.049) rotate(3)"/>
              <path id="Path_9" data-name="Path 9" d="M15.88,26.451l11.7-10.982a.877.877,0,0,0,.27-.507L29.2,6.092a.863.863,0,0,0-.27-.76L26.91,3.43l-2.7,2.534.675.634a.857.857,0,0,1,0,1.267,1,1,0,0,1-1.35,0l-2.7-2.534a.857.857,0,0,1,0-1.267,1,1,0,0,1,1.351,0l.675.634,2.7-2.534L23.533.262a1,1,0,0,0-.81-.253L13.269,1.276a.979.979,0,0,0-.54.253L1.024,12.512a3.147,3.147,0,0,0,0,4.646l9.9,9.293a3.671,3.671,0,0,0,4.952,0ZM19.707,11.3a2.784,2.784,0,0,1,2.865,2.688,2.871,2.871,0,0,1-5.73,0A2.784,2.784,0,0,1,19.707,11.3ZM8.9,16.679A2.784,2.784,0,0,1,6.037,13.99,2.784,2.784,0,0,1,8.9,11.3a2.784,2.784,0,0,1,2.865,2.688A2.784,2.784,0,0,1,8.9,16.679Zm3.151,4.544a1.012,1.012,0,0,1-.3-.046.885.885,0,0,1-.6-1.133l4.5-12.672A.97.97,0,0,1,16.857,6.8a.885.885,0,0,1,.6,1.133L12.96,20.61a.953.953,0,0,1-.906.613Z" transform="translate(2.34 10.506)"/>
            </g>
          </g>
        </g>
      </g>
    </g>
  </g>
</svg>
