<svg xmlns="http://www.w3.org/2000/svg" width="1400.629" height="443.279" viewBox="0 0 1400.629 443.279">
  <g id="Group_37" data-name="Group 37" transform="translate(-432.371 -257.007)">
    <g id="Group_36" data-name="Group 36">
      <g id="Group_35" data-name="Group 35">
        <g id="Group_34" data-name="Group 34">
          <g id="Group_33" data-name="Group 33">
            <g id="Group_32" data-name="Group 32">
              <g id="Group_31" data-name="Group 31">
                <g id="Group_30" data-name="Group 30">
                  <g id="Group_29" data-name="Group 29">
                    <g id="Group_28" data-name="Group 28">
                      <g id="Group_27" data-name="Group 27">
                        <g id="Group_26" data-name="Group 26" transform="translate(-38.443 2)">
                          <g id="Group_25" data-name="Group 25" transform="translate(495.281 173.457)">
                            <g id="Group_24" data-name="Group 24" transform="translate(0 0)">
                              <g id="Group_23" data-name="Group 23">
                                <g id="Group_22" data-name="Group 22">
                                  <text id="Doolbay" transform="translate(360.162 392.543)" fill="#f50" font-size="237" font-family="Poppins-Bold, Poppins" font-weight="700"><tspan x="0" y="0">Doolbay</tspan></text>
                                  <g id="Group_21" data-name="Group 21" transform="translate(0)">
                                    <g id="Group_20" data-name="Group 20" transform="translate(-13.818 65)">
                                      <g id="Group_19" data-name="Group 19" transform="translate(10.092 -5.448)">
                                        <g id="Group_18" data-name="Group 18">
                                          <path id="Path_7" data-name="Path 7" d="M248.32-3.594l-84.741-10.8c-16.059-2.046-30.369,2.346-40.272,12.372L-6.265,129.173c-6.315,6.393-9.188,15.987-7.873,26.38,1.309,10.339,6.745,20.992,14.912,29.23l99.269,100.136c8.152,8.223,18.7,13.7,28.99,15.008,10.233,1.3,19.722-1.618,26.037-8.01l129.585-131.19c9.906-10.013,14.226-24.483,12.172-40.706L285.99,34.4C283.634,15.792,266.743-1.247,248.32-3.594ZM221.909,99.281c-18.423-2.347-35.314-19.386-37.67-38s10.705-31.836,29.128-29.489,35.314,19.386,37.67,38S240.331,101.628,221.909,99.281Z" transform="translate(36 242.764) rotate(-45)" fill="#ffcfb7"/>
                                          <path id="Path_6" data-name="Path 6" d="M248.32-3.594l-84.741-10.8c-16.059-2.046-30.369,2.346-40.272,12.372L-6.265,129.173c-6.315,6.393-9.188,15.987-7.873,26.38,1.309,10.339,6.745,20.992,14.912,29.23l99.269,100.136c8.152,8.223,18.7,13.7,28.99,15.008,10.233,1.3,19.722-1.618,26.037-8.01l129.585-131.19c9.906-10.013,14.226-24.483,12.172-40.706L285.99,34.4C283.634,15.792,266.743-1.247,248.32-3.594ZM221.909,99.281c-18.423-2.347-35.314-19.386-37.67-38s10.705-31.836,29.128-29.489,35.314,19.386,37.67,38S240.331,101.628,221.909,99.281Z" transform="translate(0 242.764) rotate(-45)" fill="#f50"/>
                                        </g>
                                      </g>
                                    </g>
                                  </g>
                                  <path id="Path_5" data-name="Path 5" d="M0,110.039c.653-.494,7.419,2.513,8.118,2.777a168.693,168.693,0,0,1,19.9,9.01,112.984,112.984,0,0,1,40.3,35.024c8.11,11.729,14.177,33.55,33.942,33.493,9.468-.027,20.229.207,27.46-6.048,8.84-7.654,9.061-18.788,11.836-28.645C155.3,109.16,181.274,65.953,217.455,29.4q3.333-3.43,6.766-6.789a181.664,181.664,0,0,1,14.753-12.8c.7-.551,1.924-1.677,3.379-2.964a3.646,3.646,0,0,0,.979-4.416A4.7,4.7,0,0,0,238.979,0C209.245.9,138.433,14.535,98.009,117.817,98.009,117.817,37.514,81.721,0,110.039Zm0,0" transform="translate(95.822 195.316) rotate(7)" fill="#fff"/>
                                </g>
                              </g>
                            </g>
                          </g>
                        </g>
                      </g>
                    </g>
                  </g>
                </g>
              </g>
            </g>
          </g>
        </g>
      </g>
    </g>
  </g>
</svg>
