<svg xmlns="http://www.w3.org/2000/svg" width="187.427" height="36.175" viewBox="0 0 187.427 36.175">
  <defs>
    <style>
      .cls-1 {
        fill: rgba(255,85,0,0.36);
      }

      .cls-2, .cls-3 {
        fill: #f50;
      }

      .cls-3 {
        stroke: rgba(0,0,0,0);
        stroke-miterlimit: 10;
      }
    </style>
  </defs>
  <g id="Group_81" data-name="Group 81" transform="translate(-908.34 -1825.6)">
    <g id="Group_80" data-name="Group 80">
      <g id="Group_79" data-name="Group 79">
        <g id="Group_78" data-name="Group 78" transform="translate(0 0.373)">
          <g id="Group_77" data-name="Group 77" transform="translate(906 1815)">
            <g id="Group_76" data-name="Group 76">
              <path id="Path_8" data-name="Path 8" class="cls-1" d="M17.2,2.333,15.75,0l-.807,6.81a3.21,3.21,0,0,1-.688,1.658L4.322,20.447a4.207,4.207,0,0,1-3.247,1.62A3.885,3.885,0,0,1,0,21.915a2.9,2.9,0,0,0,2.5,1.659H14.392c1.639,0,2.972-1.608,2.972-3.584V2.919A1.116,1.116,0,0,0,17.2,2.333Z" transform="translate(18.82 17.049) rotate(3)"/>
              <path id="Path_9" data-name="Path 9" class="cls-2" d="M15.88,26.451l11.7-10.982a.877.877,0,0,0,.27-.507l1.351-8.87a.863.863,0,0,0-.27-.76L26.91,3.43l-2.7,2.534.675.634a.857.857,0,0,1,0,1.267,1,1,0,0,1-1.35,0l-2.7-2.534a.857.857,0,0,1,0-1.267,1,1,0,0,1,1.351,0l.675.634,2.7-2.534L23.533.262a1,1,0,0,0-.81-.253L13.269,1.276a.979.979,0,0,0-.54.253L1.024,12.512a3.147,3.147,0,0,0,0,4.646l9.9,9.293a3.671,3.671,0,0,0,4.952,0ZM19.707,11.3a2.784,2.784,0,0,1,2.865,2.688,2.871,2.871,0,0,1-5.73,0A2.784,2.784,0,0,1,19.707,11.3ZM8.9,16.679A2.784,2.784,0,0,1,6.037,13.99,2.784,2.784,0,0,1,8.9,11.3a2.784,2.784,0,0,1,2.865,2.688A2.784,2.784,0,0,1,8.9,16.679Zm3.151,4.544a1.012,1.012,0,0,1-.3-.046.885.885,0,0,1-.6-1.133l4.5-12.672A.97.97,0,0,1,16.857,6.8a.885.885,0,0,1,.6,1.133L12.96,20.61A.953.953,0,0,1,12.054,21.223Z" transform="translate(2.34 10.506)"/>
              <path id="Intersection_1" data-name="Intersection 1" class="cls-3" d="M2440.32-1864.1l4.48-9.94-7.944-18.865h6.684l4.516,12.215,4.478-12.215h6.477l-12.251,28.8Zm-21.98-10.238a8.582,8.582,0,0,1-3.1-3.535,11.8,11.8,0,0,1-1.137-5.3,11.686,11.686,0,0,1,1.137-5.285,8.48,8.48,0,0,1,3.1-3.5,8.087,8.087,0,0,1,4.376-1.225,7.515,7.515,0,0,1,3.622.84,6.179,6.179,0,0,1,2.4,2.205v-2.765h5.986v19.53h-5.986v-2.766a6.449,6.449,0,0,1-2.432,2.205,7.512,7.512,0,0,1-3.623.841A7.942,7.942,0,0,1,2418.34-1874.336Zm3.1-12.355a4.827,4.827,0,0,0-1.243,3.518,4.949,4.949,0,0,0,1.243,3.552,4.007,4.007,0,0,0,3.026,1.312,4.032,4.032,0,0,0,3.028-1.3,4.889,4.889,0,0,0,1.243-3.534,4.89,4.89,0,0,0-1.243-3.535,4.035,4.035,0,0,0-3.028-1.3A4.06,4.06,0,0,0,2421.438-1886.691Zm-21.509,12.776a6.367,6.367,0,0,1-2.415-2.188v2.731h-5.984v-25.9h5.984v9.135a6.167,6.167,0,0,1,2.415-2.205,7.548,7.548,0,0,1,3.606-.84,8.076,8.076,0,0,1,4.374,1.225,8.489,8.489,0,0,1,3.1,3.5,11.676,11.676,0,0,1,1.137,5.285,11.789,11.789,0,0,1-1.137,5.3,8.591,8.591,0,0,1-3.1,3.535,7.991,7.991,0,0,1-4.374,1.243A7.55,7.55,0,0,1,2399.929-1873.915Zm-1.206-12.757a4.887,4.887,0,0,0-1.243,3.535,4.886,4.886,0,0,0,1.243,3.534,4.032,4.032,0,0,0,3.028,1.3,4.07,4.07,0,0,0,3.045-1.312,4.92,4.92,0,0,0,1.26-3.552,4.831,4.831,0,0,0-1.243-3.518,4.1,4.1,0,0,0-3.062-1.277A4.035,4.035,0,0,0,2398.723-1886.673Zm-36.086,12.355a8.983,8.983,0,0,1-3.6-3.5,10.451,10.451,0,0,1-1.312-5.32,10.373,10.373,0,0,1,1.329-5.3,9.024,9.024,0,0,1,3.641-3.517,10.869,10.869,0,0,1,5.178-1.225,10.874,10.874,0,0,1,5.18,1.225,9.022,9.022,0,0,1,3.641,3.517,10.376,10.376,0,0,1,1.329,5.3,10.268,10.268,0,0,1-1.346,5.3,9.119,9.119,0,0,1-3.676,3.518,10.992,10.992,0,0,1-5.2,1.225A10.786,10.786,0,0,1,2362.637-1874.318Zm2.327-12.443a5.141,5.141,0,0,0-1.154,3.622,5.2,5.2,0,0,0,1.137,3.6,3.68,3.68,0,0,0,2.853,1.26,3.9,3.9,0,0,0,2.922-1.26,5,5,0,0,0,1.207-3.6,5.094,5.094,0,0,0-1.173-3.605,3.788,3.788,0,0,0-2.887-1.26A3.8,3.8,0,0,0,2364.964-1886.76Zm-24.621,12.443a8.979,8.979,0,0,1-3.606-3.5,10.461,10.461,0,0,1-1.312-5.32,10.376,10.376,0,0,1,1.331-5.3,9.008,9.008,0,0,1,3.64-3.517,10.871,10.871,0,0,1,5.18-1.225,10.876,10.876,0,0,1,5.18,1.225,9.017,9.017,0,0,1,3.64,3.517,10.376,10.376,0,0,1,1.331,5.3,10.267,10.267,0,0,1-1.348,5.3,9.118,9.118,0,0,1-3.676,3.518,10.987,10.987,0,0,1-5.2,1.225A10.78,10.78,0,0,1,2340.343-1874.318Zm2.327-12.443a5.134,5.134,0,0,0-1.156,3.622,5.191,5.191,0,0,0,1.139,3.6,3.677,3.677,0,0,0,2.851,1.26,3.9,3.9,0,0,0,2.923-1.26,5.006,5.006,0,0,0,1.208-3.6,5.1,5.1,0,0,0-1.173-3.605,3.79,3.79,0,0,0-2.887-1.26A3.8,3.8,0,0,0,2342.67-1886.76Zm38.534,13.387v-25.9h5.985v25.9Zm-70.034,0v-24.57h9.2a14.288,14.288,0,0,1,6.79,1.54,10.992,10.992,0,0,1,4.5,4.323,12.694,12.694,0,0,1,1.592,6.422,12.721,12.721,0,0,1-1.592,6.4,10.947,10.947,0,0,1-4.514,4.341,14.329,14.329,0,0,1-6.773,1.54Zm5.984-5.18h2.836a7.22,7.22,0,0,0,5.284-1.855,7.024,7.024,0,0,0,1.891-5.25,7.146,7.146,0,0,0-1.891-5.286,7.141,7.141,0,0,0-5.284-1.89h-2.836Z" transform="translate(-2270 1910)"/>
            </g>
          </g>
        </g>
      </g>
    </g>
  </g>
</svg>
