<svg xmlns="http://www.w3.org/2000/svg" width="481" height="84.001" viewBox="0 0 481 84.001">
  <defs>
    <style>
      .cls-1 {
        fill: #fff;
      }
    </style>
  </defs>
  <g id="Group_9" data-name="Group 9" transform="translate(-536.5 -130.5)">
    <g id="Group_8" data-name="Group 8">
      <g id="Group_7" data-name="Group 7">
        <g id="Group_6" data-name="Group 6">
          <g id="Group_5" data-name="Group 5">
            <path id="Subtraction_1" data-name="Subtraction 1" class="cls-1" d="M481.5,84.5H.5V.5h481v84Zm-43.968-82a4.646,4.646,0,0,0-2.449.694,4.9,4.9,0,0,0-1.833,2.089l-9.764,20.685L401.64,29.3a4.758,4.758,0,0,0-3.825,3.3,5.113,5.113,0,0,0,1.178,5.23L414.8,53.918l-3.739,22.731a5.032,5.032,0,0,0,1.117,4.14,4.743,4.743,0,0,0,3.6,1.711A4.533,4.533,0,0,0,418,81.914l19.544-10.733,19.543,10.733a4.555,4.555,0,0,0,2.214.58,4.753,4.753,0,0,0,3.611-1.713,5.022,5.022,0,0,0,1.113-4.132l-3.738-22.731,15.8-16.092a5.113,5.113,0,0,0,1.178-5.23,4.757,4.757,0,0,0-3.824-3.3L451.6,25.968,441.834,5.283A4.754,4.754,0,0,0,437.532,2.5Zm-98,0a4.646,4.646,0,0,0-2.449.694,4.9,4.9,0,0,0-1.833,2.089l-9.764,20.685L303.64,29.3a4.758,4.758,0,0,0-3.825,3.3,5.112,5.112,0,0,0,1.178,5.23L316.8,53.918,313.06,76.649a5.032,5.032,0,0,0,1.117,4.14,4.743,4.743,0,0,0,3.6,1.711A4.533,4.533,0,0,0,320,81.914l19.544-10.733,19.543,10.733a4.555,4.555,0,0,0,2.214.58,4.753,4.753,0,0,0,3.611-1.713,5.023,5.023,0,0,0,1.113-4.132l-3.738-22.731,15.8-16.092a5.113,5.113,0,0,0,1.178-5.23,4.757,4.757,0,0,0-3.824-3.3L353.6,25.968,343.834,5.283A4.754,4.754,0,0,0,339.532,2.5Zm-98,0a4.646,4.646,0,0,0-2.449.694,4.895,4.895,0,0,0-1.833,2.089l-9.764,20.685L205.64,29.3a4.758,4.758,0,0,0-3.825,3.3,5.112,5.112,0,0,0,1.178,5.23L218.8,53.918,215.06,76.649a5.032,5.032,0,0,0,1.117,4.14,4.743,4.743,0,0,0,3.6,1.711A4.533,4.533,0,0,0,222,81.914l19.544-10.733,19.543,10.733a4.555,4.555,0,0,0,2.214.58,4.753,4.753,0,0,0,3.611-1.713,5.022,5.022,0,0,0,1.113-4.132l-3.738-22.731,15.806-16.092a5.113,5.113,0,0,0,1.177-5.23,4.757,4.757,0,0,0-3.824-3.3L255.6,25.968,245.834,5.283A4.754,4.754,0,0,0,241.532,2.5Zm-98,0a4.646,4.646,0,0,0-2.449.694,4.9,4.9,0,0,0-1.833,2.089l-9.764,20.685L107.64,29.3a4.758,4.758,0,0,0-3.825,3.3,5.112,5.112,0,0,0,1.178,5.23L120.8,53.918,117.06,76.649a5.034,5.034,0,0,0,1.118,4.141,4.742,4.742,0,0,0,3.6,1.71A4.533,4.533,0,0,0,124,81.914l19.544-10.733,19.544,10.733a4.555,4.555,0,0,0,2.214.58,4.753,4.753,0,0,0,3.611-1.713,5.023,5.023,0,0,0,1.114-4.132l-3.739-22.731,15.806-16.092a5.113,5.113,0,0,0,1.177-5.23,4.757,4.757,0,0,0-3.824-3.3L157.6,25.968,147.834,5.283A4.754,4.754,0,0,0,143.532,2.5Zm-98,0a4.645,4.645,0,0,0-2.449.694,4.894,4.894,0,0,0-1.832,2.089L31.486,25.968,9.64,29.3a4.758,4.758,0,0,0-3.825,3.3,5.112,5.112,0,0,0,1.178,5.23L22.8,53.918,19.06,76.649a5.034,5.034,0,0,0,1.118,4.14,4.743,4.743,0,0,0,3.6,1.711A4.533,4.533,0,0,0,26,81.914L45.543,71.181,65.087,81.914a4.553,4.553,0,0,0,2.214.58,4.752,4.752,0,0,0,3.61-1.712,5.024,5.024,0,0,0,1.114-4.132L68.287,53.918,84.092,37.826A5.113,5.113,0,0,0,85.27,32.6a4.758,4.758,0,0,0-3.825-3.3L59.6,25.968,49.834,5.283A4.753,4.753,0,0,0,45.532,2.5Z" transform="translate(536 130)"/>
          </g>
        </g>
      </g>
    </g>
  </g>
</svg>
