<svg xmlns="http://www.w3.org/2000/svg" viewBox="0 0 39.94 40">
    <g>
        <g>
          <path d="M40,20.35C38,10.27,30.39,3.69,20.62,3.49V.6a.6.6,0,1,0-1.2,0V3.49C8,3.79,2,12.37.07,20.35c-.1.2,0,.4.2.6s.2.1.4.1A.37.37,0,0,0,1,21l3.29-1.7a6,6,0,0,1,5.39,0l.39.2a7.08,7.08,0,0,0,6.19.2l1.4-.6a5.79,5.79,0,0,1,1.89-.5v18a3.49,3.49,0,0,0,7,0v-2.2a.6.6,0,0,0-1.19,0v2.2A2.32,2.32,0,0,1,23,38.8a2.39,2.39,0,0,1-2.29-2.29v-18a6.62,6.62,0,0,1,1.89.5l1.4.7a7.06,7.06,0,0,0,6.18-.2l.3-.2a5.72,5.72,0,0,1,5.39,0l3.29,1.7a.47.47,0,0,0,.6-.1A1.42,1.42,0,0,0,40,20.35Zm-3.59-2.1a7.33,7.33,0,0,0-3.19-.79,7.77,7.77,0,0,0-3.3.79l-.29.2a5.91,5.91,0,0,1-5.19.1L23,17.86a6.74,6.74,0,0,0-5.88,0l-1.4.59a5.91,5.91,0,0,1-5.19-.1l-.4-.2a6.91,6.91,0,0,0-6.38,0l-2.19,1.1c2.09-7.38,8-14.76,18.55-14.76,11,0,16.76,7.68,18.55,14.76Z" transform="translate(-0.03)" style="fill: #231f20"></path>
          <path d="M29.2,13.17a.6.6,0,0,1-.4-.1A12.89,12.89,0,0,0,20,9.68a13.26,13.26,0,0,0-8.78,3.39.53.53,0,0,1-.8-.1.63.63,0,0,1,.1-.9,14.17,14.17,0,0,1,19,.1.74.74,0,0,1,.1.9A1,1,0,0,1,29.2,13.17Z" transform="translate(-0.03)" style="fill: #a9040a"></path>
        </g>
    </g>
  </svg>