<svg xmlns="http://www.w3.org/2000/svg" width="399" height="399" viewBox="0 0 399 399">
  <g id="Group_9" data-name="Group 9" transform="translate(-116.5 -514.5)">
    <g id="Group_8" data-name="Group 8">
      <g id="Group_7" data-name="Group 7">
        <g id="Group_6" data-name="Group 6">
          <g id="Group_5" data-name="Group 5">
            <g id="Group_4" data-name="Group 4">
              <path id="Path_18" data-name="Path 18" d="M208,456H160a8,8,0,0,0,0,16h48a8,8,0,0,0,0-16Z" transform="matrix(0.719, 0.695, -0.695, 0.719, 476.682, 292.016)"/>
              <circle id="ellipse-outline" cx="192" cy="192" r="192" transform="translate(124 522)" fill="none" stroke="#000" stroke-linecap="round" stroke-linejoin="round" stroke-width="15"/>
              <path id="Subtraction_2" data-name="Subtraction 2" d="M74.647,396.729H-133.3a6.612,6.612,0,0,1-6.5-6.706,6.612,6.612,0,0,1,6.5-6.7h6.5V304.5h13v78.8H-9.833V304.5h13v78.818H55.152V304.5h13v78.818h6.5a6.709,6.709,0,0,1,0,13.411ZM25.658,339.538a.5.5,0,1,1,.5-.5A.5.5,0,0,1,25.658,339.538Zm-121.176-4.089a.5.5,0,0,1-.354-.146.5.5,0,0,1-.146-.354.494.494,0,0,1,.146-.352l1-1a.5.5,0,0,1,.354-.146.5.5,0,0,1,.354.146.5.5,0,0,1,0,.707l-1,1A.5.5,0,0,1-95.518,335.449Z" transform="translate(345 410)"/>
              <path id="Subtraction_1" data-name="Subtraction 1" d="M15.033,284.068H-7.82a32.968,32.968,0,0,1-14.607-11.829,32.916,32.916,0,0,1-14.586,11.829H-59.875a32.914,32.914,0,0,1-14.586-11.829,32.916,32.916,0,0,1-14.586,11.829h-30.944v-4.8a35.024,35.024,0,0,1-9.465-12.142,36.687,36.687,0,0,1-2.621-7.606A37.773,37.773,0,0,1-133,251.21V237.172a7.439,7.439,0,0,1,.689-3.145l26.017-56.153a6.8,6.8,0,0,1,2.4-2.827,6.16,6.16,0,0,1,3.42-1.048h156.1a6.143,6.143,0,0,1,3.414,1.048,6.867,6.867,0,0,1,2.4,2.827l26.017,56.153a7.425,7.425,0,0,1,.689,3.145V251.21a37.818,37.818,0,0,1-.922,8.321,36.647,36.647,0,0,1-2.621,7.605,35.019,35.019,0,0,1-9.466,12.136v4.794H44.159a32.926,32.926,0,0,1-14.552-11.814,32.975,32.975,0,0,1-14.574,11.814Zm21.078-39.877v7.019c0,11.611,8.753,21.057,19.513,21.057s19.512-9.446,19.512-21.057v-7.019Zm-52.034,0v7.019c0,11.611,8.753,21.057,19.513,21.057S23.1,262.821,23.1,251.21v-7.019Zm-52.034,0v7.019c0,11.611,8.753,21.057,19.513,21.057s19.513-9.446,19.513-21.057v-7.019Zm-52.034,0v7.019c0,11.611,8.753,21.057,19.513,21.057s19.513-9.446,19.513-21.057v-7.019ZM24.924,188.038h0l9.757,42.115H71.117L51.6,188.038H24.924Zm-40.846,0v42.115h37.2l-9.756-42.115Zm-40.457,0-9.757,42.115h37.205V188.038Zm-40.08,0h0l-19.513,42.115h36.437l9.756-42.115Z" transform="translate(339 430.432)" fill="currentColor"/>
              <path id="Path_19" data-name="Path 19" d="M193.843,456H157.978c-3.3,0-5.978,3.582-5.978,8s2.676,8,5.978,8h35.865c3.3,0,5.978-3.582,5.978-8S197.144,456,193.843,456Z" transform="matrix(0.719, 0.695, -0.695, 0.719, 462.32, 312.256)"/>
              <path id="Path_20" data-name="Path 20" d="M193.843,456H157.978c-3.3,0-5.978,3.582-5.978,8s2.676,8,5.978,8h35.865c3.3,0,5.978-3.582,5.978-8S197.144,456,193.843,456Z" transform="matrix(0.719, 0.695, -0.695, 0.719, 506.32, 281.256)"/>
            </g>
          </g>
        </g>
      </g>
    </g>
  </g>
</svg>
