<svg xmlns="http://www.w3.org/2000/svg" width="850" height="850" viewBox="0 0 850 850">
  <defs>
    <style>
      .cls-1 {
        fill: #e8e8e8;
      }

      .cls-2 {
        fill: #cecece;
      }
    </style>
  </defs>
  <g id="Group_3" data-name="Group 3" transform="translate(-110 -99)">
    <g id="Group_2" data-name="Group 2">
      <g id="Group_1" data-name="Group 1">
        <rect id="Rectangle_1" data-name="Rectangle 1" class="cls-1" width="850" height="850" transform="translate(110 99)"/>
        <path id="Path_118" data-name="Path 118" class="cls-2" d="M252.3,500a245.01,245.01,0,0,1-138.49-42.7A250.158,250.158,0,0,1,9.637,300.384a254.3,254.3,0,0,1,4.346-118.763A249.907,249.907,0,0,1,40.4,120.473L0,66.555H1.978a13.411,13.411,0,0,0,4.763,4.823,13.165,13.165,0,0,0,6.71,1.836H63.824a5.526,5.526,0,0,1,5.322,4.1l6.639,24.863H103.27l-8.5-31.848a32.306,32.306,0,0,0-4.329-9.571,249.189,249.189,0,0,1,34.9-25.467A245.631,245.631,0,0,1,390.792,42.7,250.157,250.157,0,0,1,494.967,199.62a254.739,254.739,0,0,1,0,100.767A250.276,250.276,0,0,1,390.792,457.3,245.017,245.017,0,0,1,252.3,500ZM113.611,243.822h0l15.924,59.631a40.959,40.959,0,0,0-28.008,12.428A41.718,41.718,0,0,0,89.61,345.966c.391,22.658,18.977,41.092,41.43,41.092h19.349a46.953,46.953,0,0,0-4.49,20.09c0,25.848,20.835,46.877,46.446,46.877S238.789,433,238.789,407.148a46.949,46.949,0,0,0-4.491-20.09h83.789a46.952,46.952,0,0,0-4.487,20.083c0,25.848,20.835,46.877,46.445,46.877s46.446-21.029,46.446-46.877a46.946,46.946,0,0,0-4.834-20.79,13.4,13.4,0,0,0-4.232-26.078H131.04a15.331,15.331,0,0,1-11.051-4.967,15.053,15.053,0,0,1-3.643-10.017A14.78,14.78,0,0,1,131.083,330.2l59.1.091L179.2,243.822Zm259.478,0L362.2,330.293h25.5a33.036,33.036,0,0,0,32.272-25.908l13.857-60.563Zm-83.625,0v86.471h45.984v-.1l10.88-86.376Zm-83.5,0,10.973,86.4v.066h45.989V243.822Zm181.42-113.483a.058.058,0,0,0,0,.008v.008l-10.92,86.682h63.5l12.218-53.4a23.567,23.567,0,0,0,.756-5.914,25.474,25.474,0,0,0-.689-5.868,28.542,28.542,0,0,0-5.093-10.676,28.188,28.188,0,0,0-8.978-7.709,24.427,24.427,0,0,0-11.656-2.973h-.344l-38.789-.157Zm-97.919-.4v87.1h60.246l10.935-86.807-71.181-.29Zm-98.019-.4,11.112,87.494h60.368v-87.2ZM83.08,129.487h0c1.93,7.231,9.134,34.2,14.922,55.878l1.289,4.827,7.169,26.845H175.8L164.686,129.53v-.043H83.08Z" transform="translate(285 250.065)"/>
      </g>
    </g>
  </g>
</svg>
