<svg xmlns="http://www.w3.org/2000/svg" width="19" height="17" viewBox="0 0 19 17">
  <path id="heart" d="M9.5,19a.5.5,0,0,1-.243-.063A27.652,27.652,0,0,1,4.665,15.59a17.774,17.774,0,0,1-3.183-3.68A8.789,8.789,0,0,1,0,7.25,5.256,5.256,0,0,1,5.25,2,5.052,5.052,0,0,1,8.181,3.034,5.522,5.522,0,0,1,9.5,4.393a5.522,5.522,0,0,1,1.319-1.359A5.052,5.052,0,0,1,13.75,2,5.256,5.256,0,0,1,19,7.25a8.8,8.8,0,0,1-1.482,4.66,17.767,17.767,0,0,1-3.182,3.68,27.652,27.652,0,0,1-4.592,3.347A.5.5,0,0,1,9.5,19ZM5.25,3c-2.343,0,1.7,0,0,0Z" transform="translate(0 -2)"/>
</svg>
