<svg xmlns="http://www.w3.org/2000/svg" width="472" height="80" viewBox="0 0 472 80">
  <defs>
    <style>
      .cls-1 {
        fill: rgba(0,0,0,0.03);
      }
    </style>
  </defs>
  <g id="Group_4" data-name="Group 4" transform="translate(-518.543 -253)">
    <g id="Group_3" data-name="Group 3">
      <g id="Group_2" data-name="Group 2">
        <g id="Group_1" data-name="Group 1">
          <path id="star-solid" class="cls-1" d="M56.208,2.77,46.443,23.455,24.6,26.783c-3.918.594-5.488,5.64-2.647,8.53L37.756,51.4,34.017,74.136c-.673,4.109,3.469,7.187,6.938,5.265L60.5,68.668,80.043,79.4a4.833,4.833,0,0,0,6.938-5.265L83.243,51.4,99.049,35.313c2.841-2.89,1.271-7.937-2.647-8.53L74.556,23.455,64.791,2.77a4.7,4.7,0,0,0-8.583,0Z" transform="translate(498.043 253.013)"/>
          <path id="star-solid-2" data-name="star-solid" class="cls-1" d="M56.208,2.77,46.443,23.455,24.6,26.783c-3.918.594-5.488,5.64-2.647,8.53L37.756,51.4,34.017,74.136c-.673,4.109,3.469,7.187,6.938,5.265L60.5,68.668,80.043,79.4a4.833,4.833,0,0,0,6.938-5.265L83.243,51.4,99.049,35.313c2.841-2.89,1.271-7.937-2.647-8.53L74.556,23.455,64.791,2.77a4.7,4.7,0,0,0-8.583,0Z" transform="translate(694.043 253.013)"/>
          <path id="star-solid-3" data-name="star-solid" class="cls-1" d="M56.208,2.77,46.443,23.455,24.6,26.783c-3.918.594-5.488,5.64-2.647,8.53L37.756,51.4,34.017,74.136c-.673,4.109,3.469,7.187,6.938,5.265L60.5,68.668,80.043,79.4a4.833,4.833,0,0,0,6.938-5.265L83.243,51.4,99.049,35.313c2.841-2.89,1.271-7.937-2.647-8.53L74.556,23.455,64.791,2.77a4.7,4.7,0,0,0-8.583,0Z" transform="translate(596.043 253.013)"/>
          <path id="star-solid-4" data-name="star-solid" class="cls-1" d="M56.208,2.77,46.443,23.455,24.6,26.783c-3.918.594-5.488,5.64-2.647,8.53L37.756,51.4,34.017,74.136c-.673,4.109,3.469,7.187,6.938,5.265L60.5,68.668,80.043,79.4a4.833,4.833,0,0,0,6.938-5.265L83.243,51.4,99.049,35.313c2.841-2.89,1.271-7.937-2.647-8.53L74.556,23.455,64.791,2.77a4.7,4.7,0,0,0-8.583,0Z" transform="translate(890.043 253.013)"/>
          <path id="star-solid-5" data-name="star-solid" class="cls-1" d="M56.208,2.77,46.443,23.455,24.6,26.783c-3.918.594-5.488,5.64-2.647,8.53L37.756,51.4,34.017,74.136c-.673,4.109,3.469,7.187,6.938,5.265L60.5,68.668,80.043,79.4a4.833,4.833,0,0,0,6.938-5.265L83.243,51.4,99.049,35.313c2.841-2.89,1.271-7.937-2.647-8.53L74.556,23.455,64.791,2.77a4.7,4.7,0,0,0-8.583,0Z" transform="translate(792.043 253.013)"/>
        </g>
      </g>
    </g>
  </g>
</svg>
