<svg xmlns="http://www.w3.org/2000/svg" width="399" height="399" viewBox="0 0 399 399">
  <defs>
    <style>
      .cls-1, .cls-5 {
        fill: none;
      }

      .cls-1 {
        stroke: #000;
        stroke-linecap: round;
        stroke-linejoin: round;
        stroke-width: 15px;
      }

      .cls-2, .cls-3 {
        fill: #ff6a00;
      }

      .cls-3 {
        stroke: #f7f7f7;
      }

      .cls-4 {
        stroke: none;
      }
    </style>
  </defs>
  <g id="Group_21" data-name="Group 21" transform="translate(-90.5 -212.5)">
    <g id="Group_20" data-name="Group 20">
      <g id="Group_19" data-name="Group 19">
        <g id="Group_18" data-name="Group 18">
          <circle id="ellipse-outline" class="cls-1" cx="192" cy="192" r="192" transform="translate(98 220)"/>
          <path id="headphone-alt" d="M222.9,82.1C209.288,33.567,167.945,0,120.926,0,74.05,0,32.551,33.621,18.95,82.1,8.323,83.221,0,91.817,0,102.338v54.58a20.471,20.471,0,0,0,13.145,18.9c2.76,23.838,23.659,42.5,49.238,42.5H100.9a21.258,21.258,0,0,0,20.031,13.645h42.68c11.765,0,21.34-9.183,21.34-20.468s-9.575-20.468-21.34-20.468h-42.68A21.258,21.258,0,0,0,100.9,204.675H62.384c-17.186,0-31.54-11.735-34.841-27.29H42.68V163.74H56.906V95.515H42.68V81.87H34.059c12.989-40.4,47.688-68.225,86.868-68.225,39.294,0,73.879,27.795,86.868,68.225h-8.621V95.515H184.946V163.74h14.227v13.645H220.6c11.723,0,21.255-9.183,21.255-20.468v-54.58C241.853,91.817,233.53,83.221,222.9,82.1ZM120.926,204.675h42.68a6.828,6.828,0,1,1,0,13.645h-42.68a6.828,6.828,0,1,1,0-13.645ZM28.453,163.74h-7.2a6.936,6.936,0,0,1-7.028-6.823v-54.58a6.936,6.936,0,0,1,7.028-6.823h7.2Zm199.173-6.823a6.936,6.936,0,0,1-7.028,6.823h-7.2V95.515h7.2a6.936,6.936,0,0,1,7.028,6.823Z" transform="translate(167.147 281)"/>
          <path id="Subtraction_3" data-name="Subtraction 3" class="cls-2" d="M149.754,405.966h-42.68a21.583,21.583,0,0,1-12.385-3.85,21.1,21.1,0,0,1-4.577-4.319,20.4,20.4,0,0,1-3.07-5.477H48.532a51.025,51.025,0,0,1-16.477-2.707,49.817,49.817,0,0,1-14.108-7.5,48.7,48.7,0,0,1-10.806-11.35A46.84,46.84,0,0,1,.57,356.5H15.22a33.7,33.7,0,0,0,5.192,8.925,35.18,35.18,0,0,0,7.641,7.016,36.334,36.334,0,0,0,20.479,6.234H87.043a20.4,20.4,0,0,1,3.07-5.476,21.1,21.1,0,0,1,4.577-4.319,21.584,21.584,0,0,1,12.385-3.85h42.68c11.767,0,21.34,9.182,21.34,20.468S161.521,405.966,149.754,405.966Zm-42.68-27.291a6.828,6.828,0,1,0,0,13.645h42.68a6.828,6.828,0,1,0,0-13.645ZM116.969,174.5H97.192a98.147,98.147,0,0,1,19.776,0Z" transform="translate(181 107)"/>
          <g id="Rectangle_4" data-name="Rectangle 4" class="cls-3" transform="translate(349 378)">
            <rect class="cls-4" width="18" height="67"/>
            <rect class="cls-5" x="0.5" y="0.5" width="17" height="66"/>
          </g>
          <g id="Rectangle_5" data-name="Rectangle 5" class="cls-3" transform="translate(209 378)">
            <rect class="cls-4" width="18" height="67"/>
            <rect class="cls-5" x="0.5" y="0.5" width="17" height="66"/>
          </g>
        </g>
      </g>
    </g>
  </g>
</svg>
