<svg xmlns="http://www.w3.org/2000/svg" width="615" height="615" viewBox="0 0 615 615">
  <defs>
    <style>
      .cls-1 {
        fill: #ff6a00;
      }

      .cls-2 {
        fill: none;
        stroke: #000;
        stroke-linecap: round;
        stroke-linejoin: round;
        stroke-width: 17px;
      }
    </style>
  </defs>
  <g id="Group_15" data-name="Group 15" transform="translate(-99.5 -140.5)">
    <g id="Group_14" data-name="Group 14">
      <g id="Group_13" data-name="Group 13">
        <g id="Group_12" data-name="Group 12">
          <g id="Group_11" data-name="Group 11">
            <g id="Group_10" data-name="Group 10">
              <g id="sale" transform="translate(150.945 192)">
                <path id="Path_21" data-name="Path 21" d="M455.938,223.784c-6.221-6.083-12.653-12.372-14.1-17.8-1.56-5.833.92-14.774,3.318-23.42,3.525-12.709,7.171-25.852.955-36.6-6.311-10.907-19.64-14.326-32.529-17.632-8.588-2.2-17.469-4.48-21.605-8.617s-6.415-13.018-8.618-21.607c-3.307-12.89-6.725-26.218-17.632-32.529-10.743-6.216-23.886-2.57-36.6.955-8.646,2.4-17.587,4.878-23.421,3.319-5.426-1.45-11.715-7.883-17.8-14.1-8.972-9.176-19.14-19.576-32.035-19.576s-23.063,10.4-32.035,19.576c-6.083,6.22-12.372,12.653-17.8,14.1-5.834,1.559-14.774-.921-23.42-3.319-20.822-5.775-41.077-6.526-49.8,16.569-3.425,9.072,10.609,14.371,14.033,5.3,5.721-15.156,18.97-10.961,31.757-7.414,10.583,2.936,21.525,5.97,31.3,3.356,9.4-2.513,17.153-10.441,24.649-18.107,7.24-7.4,14.728-15.063,21.311-15.063s14.07,7.657,21.311,15.063c7.5,7.667,15.248,15.6,24.649,18.107,9.778,2.616,20.722-.421,31.3-3.355,9.727-2.7,19.783-5.488,25.075-2.426,5.454,3.156,8.077,13.382,10.613,23.272,2.7,10.544,5.5,21.447,12.541,28.487s17.943,9.836,28.486,12.541c9.89,2.537,20.116,5.16,23.272,10.614,3.062,5.292.271,15.349-2.426,25.075-2.936,10.581-5.97,21.522-3.356,31.3,2.513,9.4,10.441,17.154,18.108,24.65,7.4,7.24,15.063,14.728,15.063,21.31s-7.657,14.07-15.063,21.311c-7.667,7.5-15.6,15.249-18.108,24.65-2.613,9.78.421,20.721,3.356,31.3,2.7,9.726,5.487,19.783,2.425,25.075-3.155,5.454-13.382,8.077-23.271,10.614-10.544,2.7-21.447,5.5-28.487,12.541s-9.836,17.943-12.54,28.487c-2.536,9.89-5.159,20.116-10.613,23.271-5.294,3.063-15.351.272-25.075-2.425-10.582-2.935-21.523-5.968-31.3-3.356-9.4,2.513-17.153,10.441-24.649,18.107-7.24,7.4-14.728,15.063-21.311,15.063S241.8,452.8,234.562,445.4c-7.5-7.667-15.248-15.6-24.649-18.107-9.778-2.615-20.722.421-31.3,3.355-9.728,2.7-19.786,5.487-25.075,2.426-5.454-3.156-8.077-13.382-10.613-23.272-2.705-10.544-5.5-21.447-12.541-28.487s-17.943-9.836-28.486-12.541c-9.89-2.537-20.116-5.16-23.272-10.614-3.062-5.292-.271-15.349,2.426-25.075,2.936-10.581,5.97-21.522,3.356-31.3-2.513-9.4-10.441-17.154-18.108-24.65-7.4-7.24-15.063-14.728-15.063-21.31s7.657-14.07,15.063-21.311c7.667-7.5,15.6-15.249,18.108-24.65,2.613-9.78-.421-20.721-3.356-31.3-2.7-9.726-5.487-19.783-2.425-25.075,3.155-5.454,13.382-8.077,23.271-10.614,14.912-3.824,29.031-8.317,35.6-23.553,3.839-8.9-9.936-14.842-13.775-5.938-4.529,10.511-15.542,12.394-25.551,14.961-12.89,3.306-26.219,6.725-32.529,17.632-6.216,10.744-2.57,23.886.955,36.6,2.4,8.646,4.878,17.586,3.318,23.42-1.449,5.426-7.882,11.715-14.1,17.8-9.176,8.972-19.576,19.141-19.576,32.036s10.4,23.063,19.575,32.035c6.221,6.083,12.653,12.372,14.1,17.8,1.56,5.833-.92,14.774-3.318,23.42-3.525,12.709-7.171,25.852-.955,36.6,6.311,10.907,19.64,14.326,32.529,17.632,8.588,2.2,17.469,4.48,21.6,8.617s6.415,13.018,8.618,21.607c3.307,12.89,6.725,26.218,17.632,32.529,10.744,6.217,23.887,2.57,36.6-.955,8.646-2.4,17.587-4.877,23.421-3.319,5.426,1.45,11.715,7.883,17.8,14.1,8.972,9.176,19.14,19.576,32.035,19.576s23.063-10.4,32.035-19.576c6.083-6.22,12.372-12.653,17.8-14.1,5.833-1.559,14.774.921,23.42,3.319,12.71,3.526,25.854,7.172,36.6.955,10.907-6.31,14.325-19.639,17.631-32.528,2.2-8.589,4.48-17.47,8.618-21.607s13.018-6.415,21.606-8.617c12.89-3.306,26.219-6.725,32.529-17.632,6.216-10.744,2.57-23.886-.955-36.6-2.4-8.646-4.878-17.586-3.318-23.42,1.449-5.426,7.882-11.715,14.1-17.8,9.176-8.972,19.576-19.141,19.576-32.036s-10.4-23.065-19.576-32.036Z"/>
                <path id="Path_22" data-name="Path 22" class="cls-1" d="M255.874,403.322c81.333,0,147.5-66.17,147.5-147.5s-66.17-147.5-147.5-147.5-147.5,66.17-147.5,147.5,66.17,147.5,147.5,147.5Zm0-280.007c73.063,0,132.5,59.441,132.5,132.5s-59.44,132.5-132.5,132.5-132.5-59.441-132.5-132.5,59.44-132.5,132.5-132.5Z"/>
                <path id="Path_23" data-name="Path 23" class="cls-1" d="M190.809,320.883a20.3,20.3,0,0,0,28.432,0c6.857-6.857-3.749-17.462-10.607-10.606-4.663,4.667-11.882-2.553-7.217-7.217l101.7-101.7c4.663-4.667,11.882,2.553,7.217,7.217l-80.183,80.182c-6.857,6.857,3.749,17.463,10.607,10.606l80.183-80.182c18.247-18.249-10.155-46.7-28.432-28.43l-101.7,101.7a20.126,20.126,0,0,0,0,28.43Z"/>
                <path id="Path_24" data-name="Path 24" class="cls-1" d="M210.048,236.576a26.582,26.582,0,1,0-26.583-26.583,26.613,26.613,0,0,0,26.583,26.583Zm0-38.165a11.583,11.583,0,1,1-11.583,11.582A11.595,11.595,0,0,1,210.048,198.411Z"/>
                <path id="Path_25" data-name="Path 25" class="cls-1" d="M301.7,275.062a26.583,26.583,0,1,0,26.583,26.583A26.613,26.613,0,0,0,301.7,275.062Zm0,38.165a11.583,11.583,0,1,1,11.583-11.582A11.595,11.595,0,0,1,301.7,313.227Z"/>
              </g>
              <circle id="ellipse-outline" class="cls-2" cx="300" cy="300" r="300" transform="translate(107 148)"/>
            </g>
          </g>
        </g>
      </g>
    </g>
  </g>
</svg>
