<svg xmlns="http://www.w3.org/2000/svg" width="259.134" height="195.37" viewBox="0 0 259.134 195.37">
  <defs>
    <style>
      .cls-1 {
        fill: none;
        stroke: #b50305;
        stroke-linecap: round;
        stroke-linejoin: round;
        stroke-width: 7px;
      }
    </style>
  </defs>
  <g id="Group_2" data-name="Group 2" transform="translate(-830 -262)">
    <path id="screen" d="M238.676,2H20.458C9.179,2,0,10.218,0,20.316V142.422c0,10.1,9.179,18.316,20.458,18.316h102.29v24.421H75.013c-3.764,0-6.819,2.735-6.819,6.105s3.055,6.105,6.819,6.105H184.122c3.764,0,6.819-2.735,6.819-6.105s-3.055-6.105-6.819-6.105H136.386V160.738h102.29c11.279,0,20.458-8.218,20.458-18.316V20.316C259.134,10.218,249.955,2,238.676,2ZM245.5,142.422c0,3.37-3.055,6.105-6.819,6.105H20.458c-3.764,0-6.819-2.735-6.819-6.105V20.316c0-3.37,3.055-6.105,6.819-6.105H238.676c3.764,0,6.819,2.735,6.819,6.105Z" transform="translate(830 260)"/>
    <path id="Icon_feather-play" data-name="Icon feather-play" class="cls-1" d="M7.5,4.5,54.232,32.467,7.5,60.434Z" transform="translate(938.01 312.566)"/>
  </g>
</svg>
