<svg id="Capa_1" enable-background="new 0 0 512 512" height="512" viewBox="0 0 512 512" width="512" xmlns="http://www.w3.org/2000/svg"><g><path d="m497 242h-23.072c5.123-8.833 8.072-19.075 8.072-30v-45c0-8.284-6.716-15-15-15h-28.406c8.642-40.259 49.619-62.318 50.325-62.691 7.334-3.813 10.203-12.846 6.406-20.194-3.803-7.36-12.851-10.244-20.212-6.441-1.473.762-20.531 10.831-38.113 30.309v-46.983c0-8.284-6.716-15-15-15s-15 6.716-15 15v46.983c-17.582-19.478-36.64-29.547-38.114-30.309-7.361-3.805-16.409-.918-20.212 6.441-3.803 7.36-.919 16.409 6.44 20.211.465.24 41.697 22.017 50.313 62.674h-28.427c-8.284 0-15 6.716-15 15v45c0 10.925 2.949 21.167 8.072 30h-134.802l-15-30h66.73c8.284 0 15-6.716 15-15v-182c0-8.284-6.716-15-15-15h-242c-8.284 0-15 6.716-15 15v182c0 8.284 6.716 15 15 15h66.73l-15 30h-81.73c-8.284 0-15 6.716-15 15s6.716 15 15 15h15v225c0 8.284 6.716 15 15 15s15-6.716 15-15v-45h212v45c0 8.284 6.716 15 15 15h180c8.284 0 15-6.716 15-15v-225h15c8.284 0 15-6.716 15-15s-6.716-15-15-15zm-105-30v-30h60v30c0 16.542-13.458 30-30 30s-30-13.458-30-30zm-332-182h212v152h-212zm85.27 182h41.46l15 30h-71.46zm-85.27 210v-150h212v150zm242-30h150v90h-150zm150-30h-150v-90h150z"/><circle cx="377" cy="317" r="15"/><circle cx="377" cy="437" r="15"/></g></svg>