<svg xmlns="http://www.w3.org/2000/svg" width="629.151" height="622.852" viewBox="0 0 629.151 622.852">
  <defs>
    <style>
      .cls-1, .cls-2, .cls-3 {
        fill: none;
        stroke-linecap: round;
        stroke-linejoin: round;
      }

      .cls-1 {
        stroke: #000;
        stroke-width: 15px;
      }

      .cls-2, .cls-3 {
        stroke: #b50305;
      }

      .cls-2 {
        stroke-width: 5px;
      }

      .cls-3 {
        stroke-width: 10px;
      }
    </style>
  </defs>
  <g id="Group_3" data-name="Group 3" transform="matrix(0.799, 0.602, -0.602, 0.799, 357.171, -391.479)">
    <g id="shirt-outline" transform="translate(133 331)">
      <path id="Path_4" data-name="Path 4" class="cls-1" d="M314.56,48S291.78,56,256,56s-58.56-8-58.56-8a31.939,31.939,0,0,0-10.569,1.8L32,104l16.63,88,48.88,5.52A24,24,0,0,1,118.8,222.1L112,464H400l-6.8-241.9a24,24,0,0,1,21.29-24.58L463.37,192,480,104,325.13,49.8A31.94,31.94,0,0,0,314.56,48Z"/>
      <path id="Path_5" data-name="Path 5" class="cls-1" d="M333.31,52.66a80,80,0,0,1-154.62,0"/>
    </g>
    <path id="Icon_feather-star" data-name="Icon feather-star" class="cls-2" d="M25.459,3,32.4,17.124,47.918,19.4,36.688,30.39l2.65,15.523-13.88-7.333-13.88,7.333,2.65-15.523L3,19.4l15.519-2.279Z" transform="translate(413.8 666.735)"/>
    <path id="Icon_feather-star-2" data-name="Icon feather-star" class="cls-3" d="M57.929,3,74.9,37.324l37.956,5.538-27.465,26.7,6.482,37.724L57.929,89.468l-33.946,17.82,6.482-37.724L3,42.862l37.956-5.538Z" transform="translate(326.4 522.96)"/>
  </g>
</svg>
