<svg xmlns="http://www.w3.org/2000/svg" width="548.16" height="553.415" viewBox="0 0 548.16 553.415">
  <defs>
    <style>
      .cls-1 {
        fill: none;
        stroke: #b50305;
        stroke-linecap: round;
        stroke-linejoin: round;
        stroke-width: 7px;
      }
    </style>
  </defs>
  <g id="Group_1" data-name="Group 1" transform="matrix(0.719, 0.695, -0.695, 0.719, -45.345, -782.446)">
    <g id="Smartphone" transform="translate(824 292)">
      <path id="Path_1" data-name="Path 1" d="M361.425,8h-199.8c-22.978.025-41.6,17.919-41.625,40V464c.026,22.081,18.647,39.975,41.625,40h199.8c22.978-.025,41.6-17.919,41.625-40V48C403.024,25.919,384.4,8.025,361.425,8ZM317.97,24l-4.995,24h-102.9L205.08,24ZM386.4,464c-.015,13.249-11.188,23.985-24.975,24h-199.8c-13.787-.015-24.96-10.751-24.975-24V48c.015-13.249,11.188-23.985,24.975-24H188.1l6.987,33.569A8.249,8.249,0,0,0,203.25,64H319.8a8.249,8.249,0,0,0,8.164-6.431L334.95,24h26.475c13.787.015,24.96,10.751,24.975,24Z" transform="translate(-120 -8)"/>
      <path id="Path_2" data-name="Path 2" d="M208,456H160a8,8,0,0,0,0,16h48a8,8,0,0,0,0-16Z" transform="translate(-120 -8)"/>
      <path id="Path_3" data-name="Path 3" d="M240,456h-8a8,8,0,0,0,0,16h8a8,8,0,0,0,0-16Z" transform="translate(-115.366 -8)"/>
    </g>
    <path id="Icon_feather-phone" data-name="Icon feather-phone" class="cls-1" d="M130.609,107.929v21.1a14.73,14.73,0,0,1-4.152,10.422,12.125,12.125,0,0,1-9.817,3.644,119.789,119.789,0,0,1-55.3-21.591,131.729,131.729,0,0,1-38.447-42.2A148.151,148.151,0,0,1,3.22,18.332a14.947,14.947,0,0,1,3.3-10.749A12.331,12.331,0,0,1,15.972,3H35.2c6.433-.069,11.915,5.106,12.816,12.1A97.586,97.586,0,0,0,52.5,34.859,15.075,15.075,0,0,1,49.613,49.7L41.475,58.63a108.075,108.075,0,0,0,38.447,42.2l8.138-8.932a12,12,0,0,1,13.521-3.165,76.357,76.357,0,0,0,18.006,4.923c6.444,1,11.183,7.137,11.022,14.276Z" transform="translate(899.396 466.054)"/>
  </g>
</svg>
